# xmcd
# 
# Track frame offsets:
#     150
#     17398
#     29599
#     45487
#     62554
#     75287
#     94996
#     108156
#     121764
#     140183
#     157124
# 
# Disc length: 2410
# 
# Revision: 2
# Processed by: cddbd v1.5.2PL0 Copyright (c) Steve Scherf et al.
# Submitted via: fre:ac v1.1beta1pre4
# 
DISCID=8409680b
DTITLE=Molly Tuttle - When You're Ready
DYEAR=2019
DGENRE=Bluegrass
TTITLE0=Million Miles
TTITLE1=Take the Journey
TTITLE2=Make My Mind Up
TTITLE3=When You're Ready
TTITLE4=The High Road
TTITLE5=Don't Let Go
TTITLE6=Light Came In (Power Went Out)
TTITLE7=Messed With My Mind
TTITLE8=Sleepwalking
TTITLE9=Sit Back and Watch It Roll
TTITLE10=Clue
EXTD=
EXTT0=
EXTT1=
EXTT2=
EXTT3=
EXTT4=
EXTT5=
EXTT6=
EXTT7=
EXTT8=
EXTT9=
EXTT10=
PLAYORDER=
